<svg xmlns="http://www.w3.org/2000/svg" viewBox="0 0 64 64" role="img" aria-label="ft_casino">
  <title>ft_casino</title>
  
  <polygon points="14,24 50,24 44,16 20,16" fill="#f0d36a"></polygon>
  
  <polygon points="20,16 44,16 38,12 26,12" fill="#d4af37"></polygon>
  
  <rect x="14" y="24" width="36" height="2" fill="#7a6020"></rect>
  
  <polygon points="14,26 50,26 32,52" fill="#b89230"></polygon>
  <polygon points="14,26 32,26 32,52" fill="#d4af37"></polygon>
  <polygon points="32,26 50,26 32,52" fill="#7a6020"></polygon>
  
  <line x1="32" y1="26" x2="32" y2="52" stroke="#0f1419" stroke-width="0.5"></line>
  
  <polygon points="22,26 42,26 32,46" fill="none" stroke="#f0d36a" stroke-width="0.5" opacity="0.6"></polygon>
  
  <g stroke="#0f1419" stroke-width="0.4" opacity="0.6">
    <line x1="14" y1="24" x2="20" y2="16"></line>
    <line x1="50" y1="24" x2="44" y2="16"></line>
    <line x1="26" y1="12" x2="20" y2="16"></line>
    <line x1="38" y1="12" x2="44" y2="16"></line>
  </g>
</svg>